<?xml version="1.0" encoding="UTF-8" standalone="no"?>
<!-- Created with Inkscape (http://www.inkscape.org/) -->
<svg
   xmlns:dc="http://purl.org/dc/elements/1.1/"
   xmlns:cc="http://creativecommons.org/ns#"
   xmlns:rdf="http://www.w3.org/1999/02/22-rdf-syntax-ns#"
   xmlns:svg="http://www.w3.org/2000/svg"
   xmlns="http://www.w3.org/2000/svg"
   xmlns:sodipodi="http://sodipodi.sourceforge.net/DTD/sodipodi-0.dtd"
   xmlns:inkscape="http://www.inkscape.org/namespaces/inkscape"
   id="svg2"
   sodipodi:version="0.32"
   inkscape:version="0.46"
   width="197.83977"
   height="209.57515"
   version="1.0"
   sodipodi:docname="octy.svg"
   inkscape:output_extension="org.inkscape.output.svg.inkscape"
   inkscape:export-filename="/home/allison/Art/EricStuff/Octy.png"
   inkscape:export-xdpi="90"
   inkscape:export-ydpi="90">
  <metadata
     id="metadata7">
    <rdf:RDF>
      <cc:Work
         rdf:about="">
        <dc:format>image/svg+xml</dc:format>
        <dc:type
           rdf:resource="http://purl.org/dc/dcmitype/StillImage" />
      </cc:Work>
    </rdf:RDF>
  </metadata>
  <defs
     id="defs5">
    <inkscape:perspective
       sodipodi:type="inkscape:persp3d"
       inkscape:vp_x="0 : 526.18109 : 1"
       inkscape:vp_y="0 : 1000 : 0"
       inkscape:vp_z="744.09448 : 526.18109 : 1"
       inkscape:persp3d-origin="372.04724 : 350.78739 : 1"
       id="perspective9" />
    <pattern
       patternUnits="userSpaceOnUse"
       width="1015.4053"
       height="1083.2876"
       patternTransform="translate(2183.5457,468.3508)"
       id="pattern4133">
      <g
         id="g4098"
         transform="translate(-2183.5457,-468.3508)">
        <rect
           style="opacity:1;fill:none;fill-opacity:1;stroke:none;stroke-width:2.79999995;stroke-linecap:butt;stroke-linejoin:miter;stroke-miterlimit:4;stroke-dasharray:none;stroke-opacity:1"
           id="rect3233"
           width="1015.4053"
           height="1083.2876"
           x="2183.5457"
           y="468.3508" />
        <path
           sodipodi:type="arc"
           style="opacity:0.34913791;fill:#982020;fill-opacity:1;stroke:none;stroke-width:2.79999995;stroke-linecap:butt;stroke-linejoin:miter;stroke-miterlimit:4;stroke-dasharray:none;stroke-opacity:1"
           id="path3235"
           sodipodi:cx="2341.9377"
           sodipodi:cy="632.3996"
           sodipodi:rx="90.509666"
           sodipodi:ry="90.509666"
           d="M 2432.4474,632.3996 A 90.509666,90.509666 0 1 1 2251.4281,632.3996 A 90.509666,90.509666 0 1 1 2432.4474,632.3996 z" />
        <path
           sodipodi:type="arc"
           style="opacity:0.34913791;fill:#982020;fill-opacity:1;stroke:none;stroke-width:2.79999995;stroke-linecap:butt;stroke-linejoin:miter;stroke-miterlimit:4;stroke-dasharray:none;stroke-opacity:1"
           id="path3237"
           sodipodi:cx="2530.0281"
           sodipodi:cy="800.69098"
           sodipodi:rx="41.012192"
           sodipodi:ry="41.012192"
           d="M 2571.0403,800.69098 A 41.012192,41.012192 0 1 1 2489.0159,800.69098 A 41.012192,41.012192 0 1 1 2571.0403,800.69098 z"
           transform="translate(31.112695,195.16147)" />
        <path
           sodipodi:type="arc"
           style="opacity:0.34913791;fill:#982020;fill-opacity:1;stroke:none;stroke-width:2.79999995;stroke-linecap:butt;stroke-linejoin:miter;stroke-miterlimit:4;stroke-dasharray:none;stroke-opacity:1"
           id="path3239"
           sodipodi:cx="2585.1824"
           sodipodi:cy="570.17419"
           sodipodi:rx="53.740116"
           sodipodi:ry="53.740116"
           d="M 2638.9225,570.17419 A 53.740116,53.740116 0 1 1 2531.4423,570.17419 A 53.740116,53.740116 0 1 1 2638.9225,570.17419 z" />
        <path
           sodipodi:type="arc"
           style="opacity:0.34913791;fill:#982020;fill-opacity:1;stroke:none;stroke-width:2.79999995;stroke-linecap:butt;stroke-linejoin:miter;stroke-miterlimit:4;stroke-dasharray:none;stroke-opacity:1"
           id="path3241"
           sodipodi:cx="2341.9377"
           sodipodi:cy="977.46765"
           sodipodi:rx="121.62237"
           sodipodi:ry="121.62237"
           d="M 2463.5601,977.46765 A 121.62237,121.62237 0 1 1 2220.3154,977.46765 A 121.62237,121.62237 0 1 1 2463.5601,977.46765 z" />
        <path
           sodipodi:type="arc"
           style="opacity:0.34913791;fill:#982020;fill-opacity:1;stroke:none;stroke-width:2.79999995;stroke-linecap:butt;stroke-linejoin:miter;stroke-miterlimit:4;stroke-dasharray:none;stroke-opacity:1"
           id="path3243"
           sodipodi:cx="2626.1946"
           sodipodi:cy="1264.553"
           sodipodi:rx="103.23759"
           sodipodi:ry="103.23759"
           d="M 2729.4322,1264.553 A 103.23759,103.23759 0 1 1 2522.957,1264.553 A 103.23759,103.23759 0 1 1 2729.4322,1264.553 z" />
        <path
           sodipodi:type="arc"
           style="opacity:0.34913791;fill:#982020;fill-opacity:1;stroke:none;stroke-width:2.79999995;stroke-linecap:butt;stroke-linejoin:miter;stroke-miterlimit:4;stroke-dasharray:none;stroke-opacity:1"
           id="path3245"
           sodipodi:cx="3092.885"
           sodipodi:cy="721.495"
           sodipodi:rx="89.095451"
           sodipodi:ry="89.095451"
           d="M 3181.9805,721.495 A 89.095451,89.095451 0 1 1 3003.7896,721.495 A 89.095451,89.095451 0 1 1 3181.9805,721.495 z" />
        <path
           sodipodi:type="arc"
           style="opacity:0.34913791;fill:#982020;fill-opacity:1;stroke:none;stroke-width:2.79999995;stroke-linecap:butt;stroke-linejoin:miter;stroke-miterlimit:4;stroke-dasharray:none;stroke-opacity:1"
           id="path3247"
           sodipodi:cx="2777.5154"
           sodipodi:cy="793.61993"
           sodipodi:rx="87.681244"
           sodipodi:ry="87.681244"
           d="M 2865.1966,793.61993 A 87.681244,87.681244 0 1 1 2689.8341,793.61993 A 87.681244,87.681244 0 1 1 2865.1966,793.61993 z" />
        <path
           sodipodi:type="arc"
           style="opacity:0.34913791;fill:#982020;fill-opacity:1;stroke:none;stroke-width:2.79999995;stroke-linecap:butt;stroke-linejoin:miter;stroke-miterlimit:4;stroke-dasharray:none;stroke-opacity:1"
           id="path3249"
           sodipodi:cx="2945.8069"
           sodipodi:cy="676.24017"
           sodipodi:rx="26.870058"
           sodipodi:ry="26.870058"
           d="M 2972.6769,676.24017 A 26.870058,26.870058 0 1 1 2918.9368,676.24017 A 26.870058,26.870058 0 1 1 2972.6769,676.24017 z" />
        <path
           sodipodi:type="arc"
           style="opacity:0.34913791;fill:#982020;fill-opacity:1;stroke:none;stroke-width:2.79999995;stroke-linecap:butt;stroke-linejoin:miter;stroke-miterlimit:4;stroke-dasharray:none;stroke-opacity:1"
           id="path3251"
           sodipodi:cx="2771.8586"
           sodipodi:cy="536.23303"
           sodipodi:rx="16.970562"
           sodipodi:ry="16.970562"
           d="M 2788.8292,536.23303 A 16.970562,16.970562 0 1 1 2754.8881,536.23303 A 16.970562,16.970562 0 1 1 2788.8292,536.23303 z" />
        <path
           sodipodi:type="arc"
           style="opacity:0.34913791;fill:#982020;fill-opacity:1;stroke:none;stroke-width:2.79999995;stroke-linecap:butt;stroke-linejoin:miter;stroke-miterlimit:4;stroke-dasharray:none;stroke-opacity:1"
           id="path3253"
           sodipodi:cx="2733.6748"
           sodipodi:cy="653.61279"
           sodipodi:rx="43.840622"
           sodipodi:ry="43.840622"
           d="M 2777.5154,653.61279 A 43.840622,43.840622 0 1 1 2689.8342,653.61279 A 43.840622,43.840622 0 1 1 2777.5154,653.61279 z" />
        <path
           sodipodi:type="arc"
           style="opacity:0.34913791;fill:#982020;fill-opacity:1;stroke:none;stroke-width:2.79999995;stroke-linecap:butt;stroke-linejoin:miter;stroke-miterlimit:4;stroke-dasharray:none;stroke-opacity:1"
           id="path3255"
           sodipodi:cx="2660.1357"
           sodipodi:cy="1007.1661"
           sodipodi:rx="91.923882"
           sodipodi:ry="91.923882"
           d="M 2752.0596,1007.1661 A 91.923882,91.923882 0 1 1 2568.2119,1007.1661 A 91.923882,91.923882 0 1 1 2752.0596,1007.1661 z"
           transform="matrix(0.5846154,0,0,0.5846154,956.48704,165.21707)" />
        <path
           sodipodi:type="arc"
           style="opacity:0.34913791;fill:#982020;fill-opacity:1;stroke:none;stroke-width:2.79999995;stroke-linecap:butt;stroke-linejoin:miter;stroke-miterlimit:4;stroke-dasharray:none;stroke-opacity:1"
           id="path3257"
           sodipodi:cx="2827.0129"
           sodipodi:cy="942.11237"
           sodipodi:rx="26.870058"
           sodipodi:ry="26.870058"
           d="M 2853.883,942.11237 A 26.870058,26.870058 0 1 1 2800.1429,942.11237 A 26.870058,26.870058 0 1 1 2853.883,942.11237 z" />
        <path
           sodipodi:type="arc"
           style="opacity:0.34913791;fill:#982020;fill-opacity:1;stroke:none;stroke-width:2.79999995;stroke-linecap:butt;stroke-linejoin:miter;stroke-miterlimit:4;stroke-dasharray:none;stroke-opacity:1"
           id="path3259"
           sodipodi:cx="2897.7236"
           sodipodi:cy="1230.6119"
           sodipodi:rx="63.63961"
           sodipodi:ry="63.63961"
           d="M 2961.3632,1230.6119 A 63.63961,63.63961 0 1 1 2834.084,1230.6119 A 63.63961,63.63961 0 1 1 2961.3632,1230.6119 z" />
        <path
           sodipodi:type="arc"
           style="opacity:0.34913791;fill:#982020;fill-opacity:1;stroke:none;stroke-width:2.79999995;stroke-linecap:butt;stroke-linejoin:miter;stroke-miterlimit:4;stroke-dasharray:none;stroke-opacity:1"
           id="path3261"
           sodipodi:cx="2455.0747"
           sodipodi:cy="1387.5896"
           sodipodi:rx="73.539108"
           sodipodi:ry="73.539108"
           d="M 2528.6138,1387.5896 A 73.539108,73.539108 0 1 1 2381.5356,1387.5896 A 73.539108,73.539108 0 1 1 2528.6138,1387.5896 z" />
        <path
           sodipodi:type="arc"
           style="opacity:0.34913791;fill:#982020;fill-opacity:1;stroke:none;stroke-width:2.79999995;stroke-linecap:butt;stroke-linejoin:miter;stroke-miterlimit:4;stroke-dasharray:none;stroke-opacity:1"
           id="path3263"
           sodipodi:cx="2562.5549"
           sodipodi:cy="1118.889"
           sodipodi:rx="22.627417"
           sodipodi:ry="22.627417"
           d="M 2585.1823,1118.889 A 22.627417,22.627417 0 1 1 2539.9275,1118.889 A 22.627417,22.627417 0 1 1 2585.1823,1118.889 z" />
        <path
           sodipodi:type="arc"
           style="opacity:0.34913791;fill:#982020;fill-opacity:1;stroke:none;stroke-width:2.79999995;stroke-linecap:butt;stroke-linejoin:miter;stroke-miterlimit:4;stroke-dasharray:none;stroke-opacity:1"
           id="path3265"
           sodipodi:cx="2360.3225"
           sodipodi:cy="1193.8424"
           sodipodi:rx="43.840622"
           sodipodi:ry="43.840622"
           d="M 2404.1631,1193.8424 A 43.840622,43.840622 0 1 1 2316.4819,1193.8424 A 43.840622,43.840622 0 1 1 2404.1631,1193.8424 z" />
        <path
           sodipodi:type="arc"
           style="opacity:0.34913791;fill:#982020;fill-opacity:1;stroke:none;stroke-width:2.79999995;stroke-linecap:butt;stroke-linejoin:miter;stroke-miterlimit:4;stroke-dasharray:none;stroke-opacity:1"
           id="path3267"
           sodipodi:cx="2242.9426"
           sodipodi:cy="1155.6586"
           sodipodi:rx="25.455845"
           sodipodi:ry="25.455845"
           d="M 2268.3985,1155.6586 A 25.455845,25.455845 0 1 1 2217.4868,1155.6586 A 25.455845,25.455845 0 1 1 2268.3985,1155.6586 z" />
        <path
           sodipodi:type="arc"
           style="opacity:0.34913791;fill:#982020;fill-opacity:1;stroke:none;stroke-width:2.79999995;stroke-linecap:butt;stroke-linejoin:miter;stroke-miterlimit:4;stroke-dasharray:none;stroke-opacity:1"
           id="path3269"
           sodipodi:cx="2282.5408"
           sodipodi:cy="779.47778"
           sodipodi:rx="36.769554"
           sodipodi:ry="36.769554"
           d="M 2319.3103,779.47778 A 36.769554,36.769554 0 1 1 2245.7712,779.47778 A 36.769554,36.769554 0 1 1 2319.3103,779.47778 z" />
        <path
           sodipodi:type="arc"
           style="opacity:0.34913791;fill:#982020;fill-opacity:1;stroke:none;stroke-width:2.79999995;stroke-linecap:butt;stroke-linejoin:miter;stroke-miterlimit:4;stroke-dasharray:none;stroke-opacity:1"
           id="path3271"
           sodipodi:cx="2466.3884"
           sodipodi:cy="516.43408"
           sodipodi:rx="16.970562"
           sodipodi:ry="16.970562"
           d="M 2483.359,516.43408 A 16.970562,16.970562 0 1 1 2449.4179,516.43408 A 16.970562,16.970562 0 1 1 2483.359,516.43408 z" />
        <path
           sodipodi:type="arc"
           style="opacity:0.34913791;fill:#982020;fill-opacity:1;stroke:none;stroke-width:2.79999995;stroke-linecap:butt;stroke-linejoin:miter;stroke-miterlimit:4;stroke-dasharray:none;stroke-opacity:1"
           id="path3273"
           sodipodi:cx="2951.4636"
           sodipodi:cy="563.10309"
           sodipodi:rx="46.669048"
           sodipodi:ry="46.669048"
           d="M 2998.1327,563.10309 A 46.669048,46.669048 0 1 1 2904.7946,563.10309 A 46.669048,46.669048 0 1 1 2998.1327,563.10309 z" />
        <path
           sodipodi:type="arc"
           style="opacity:0.34913791;fill:#982020;fill-opacity:1;stroke:none;stroke-width:2.79999995;stroke-linecap:butt;stroke-linejoin:miter;stroke-miterlimit:4;stroke-dasharray:none;stroke-opacity:1"
           id="path3275"
           sodipodi:cx="3109.8557"
           sodipodi:cy="565.93152"
           sodipodi:rx="26.870058"
           sodipodi:ry="26.870058"
           d="M 3136.7258,565.93152 A 26.870058,26.870058 0 1 1 3082.9857,565.93152 A 26.870058,26.870058 0 1 1 3136.7258,565.93152 z" />
        <path
           sodipodi:type="arc"
           style="opacity:0.34913791;fill:#982020;fill-opacity:1;stroke:none;stroke-width:2.79999995;stroke-linecap:butt;stroke-linejoin:miter;stroke-miterlimit:4;stroke-dasharray:none;stroke-opacity:1"
           id="path3277"
           sodipodi:cx="3008.0322"
           sodipodi:cy="995.85248"
           sodipodi:rx="80.610176"
           sodipodi:ry="80.610176"
           d="M 3088.6424,995.85248 A 80.610176,80.610176 0 1 1 2927.4221,995.85248 A 80.610176,80.610176 0 1 1 3088.6424,995.85248 z" />
        <path
           sodipodi:type="arc"
           style="opacity:0.34913791;fill:#982020;fill-opacity:1;stroke:none;stroke-width:2.79999995;stroke-linecap:butt;stroke-linejoin:miter;stroke-miterlimit:4;stroke-dasharray:none;stroke-opacity:1"
           id="path3279"
           sodipodi:cx="2880.7529"
           sodipodi:cy="1106.1611"
           sodipodi:rx="32.526913"
           sodipodi:ry="32.526913"
           d="M 2913.2798,1106.1611 A 32.526913,32.526913 0 1 1 2848.226,1106.1611 A 32.526913,32.526913 0 1 1 2913.2798,1106.1611 z"
           transform="matrix(1.3043478,0,0,1.3043478,-1030.9001,-439.89532)" />
        <path
           sodipodi:type="arc"
           style="opacity:0.34913791;fill:#982020;fill-opacity:1;stroke:none;stroke-width:2.79999995;stroke-linecap:butt;stroke-linejoin:miter;stroke-miterlimit:4;stroke-dasharray:none;stroke-opacity:1"
           id="path3281"
           sodipodi:cx="2771.8586"
           sodipodi:cy="1158.4871"
           sodipodi:rx="16.970562"
           sodipodi:ry="16.970562"
           d="M 2788.8292,1158.4871 A 16.970562,16.970562 0 1 1 2754.8881,1158.4871 A 16.970562,16.970562 0 1 1 2788.8292,1158.4871 z" />
        <path
           sodipodi:type="arc"
           style="opacity:0.34913791;fill:#982020;fill-opacity:1;stroke:none;stroke-width:2.79999995;stroke-linecap:butt;stroke-linejoin:miter;stroke-miterlimit:4;stroke-dasharray:none;stroke-opacity:1"
           id="path3283"
           sodipodi:cx="2831.2556"
           sodipodi:cy="1438.5013"
           sodipodi:rx="70.710678"
           sodipodi:ry="70.710678"
           d="M 2901.9663,1438.5013 A 70.710678,70.710678 0 1 1 2760.5449,1438.5013 A 70.710678,70.710678 0 1 1 2901.9663,1438.5013 z" />
        <path
           sodipodi:type="arc"
           style="opacity:0.34913791;fill:#982020;fill-opacity:1;stroke:none;stroke-width:2.79999995;stroke-linecap:butt;stroke-linejoin:miter;stroke-miterlimit:4;stroke-dasharray:none;stroke-opacity:1"
           id="path3285"
           sodipodi:cx="2698.3196"
           sodipodi:cy="1413.0454"
           sodipodi:rx="19.79899"
           sodipodi:ry="19.79899"
           d="M 2718.1186,1413.0454 A 19.79899,19.79899 0 1 1 2678.5206,1413.0454 A 19.79899,19.79899 0 1 1 2718.1186,1413.0454 z" />
        <path
           sodipodi:type="arc"
           style="opacity:0.34913791;fill:#982020;fill-opacity:1;stroke:none;stroke-width:2.79999995;stroke-linecap:butt;stroke-linejoin:miter;stroke-miterlimit:4;stroke-dasharray:none;stroke-opacity:1"
           id="path3291"
           sodipodi:cx="2619.1235"
           sodipodi:cy="1506.3835"
           sodipodi:rx="31.112698"
           sodipodi:ry="31.112698"
           d="M 2650.2362,1506.3835 A 31.112698,31.112698 0 1 1 2588.0108,1506.3835 A 31.112698,31.112698 0 1 1 2650.2362,1506.3835 z" />
        <path
           sodipodi:type="arc"
           style="opacity:0.34913791;fill:#982020;fill-opacity:1;stroke:none;stroke-width:2.79999995;stroke-linecap:butt;stroke-linejoin:miter;stroke-miterlimit:4;stroke-dasharray:none;stroke-opacity:1"
           id="path3293"
           sodipodi:cx="2282.5408"
           sodipodi:cy="1359.3053"
           sodipodi:rx="53.740116"
           sodipodi:ry="53.740116"
           d="M 2336.2809,1359.3053 A 53.740116,53.740116 0 1 1 2228.8007,1359.3053 A 53.740116,53.740116 0 1 1 2336.2809,1359.3053 z" />
        <path
           sodipodi:type="arc"
           style="opacity:0.34913791;fill:#982020;fill-opacity:1;stroke:none;stroke-width:2.79999995;stroke-linecap:butt;stroke-linejoin:miter;stroke-miterlimit:4;stroke-dasharray:none;stroke-opacity:1"
           id="path3295"
           sodipodi:cx="2363.1509"
           sodipodi:cy="1533.2537"
           sodipodi:rx="18.384777"
           sodipodi:ry="18.384777"
           d="M 2381.5357,1533.2537 A 18.384777,18.384777 0 1 1 2344.7661,1533.2537 A 18.384777,18.384777 0 1 1 2381.5357,1533.2537 z" />
        <path
           sodipodi:type="arc"
           style="opacity:0.34913791;fill:#982020;fill-opacity:1;stroke:none;stroke-width:2.79999995;stroke-linecap:butt;stroke-linejoin:miter;stroke-miterlimit:4;stroke-dasharray:none;stroke-opacity:1"
           id="path3299"
           sodipodi:cx="3091.4709"
           sodipodi:cy="1430.016"
           sodipodi:rx="98.994949"
           sodipodi:ry="98.994949"
           d="M 3190.4659,1430.016 A 98.994949,98.994949 0 1 1 2992.476,1430.016 A 98.994949,98.994949 0 1 1 3190.4659,1430.016 z" />
        <path
           sodipodi:type="arc"
           style="opacity:0.34913791;fill:#982020;fill-opacity:1;stroke:none;stroke-width:2.79999995;stroke-linecap:butt;stroke-linejoin:miter;stroke-miterlimit:4;stroke-dasharray:none;stroke-opacity:1"
           id="path3301"
           sodipodi:cx="3090.0566"
           sodipodi:cy="1199.4993"
           sodipodi:rx="49.497475"
           sodipodi:ry="49.497475"
           d="M 3139.5541,1199.4993 A 49.497475,49.497475 0 1 1 3040.5592,1199.4993 A 49.497475,49.497475 0 1 1 3139.5541,1199.4993 z" />
        <path
           sodipodi:type="arc"
           style="opacity:0.34913791;fill:#982020;fill-opacity:1;stroke:none;stroke-width:2.79999995;stroke-linecap:butt;stroke-linejoin:miter;stroke-miterlimit:4;stroke-dasharray:none;stroke-opacity:1"
           id="path3303"
           sodipodi:cx="3166.4241"
           sodipodi:cy="984.53876"
           sodipodi:rx="18.384777"
           sodipodi:ry="18.384777"
           d="M 3184.8088,984.53876 A 18.384777,18.384777 0 1 1 3148.0393,984.53876 A 18.384777,18.384777 0 1 1 3184.8088,984.53876 z"
           transform="translate(-540.22958,-115.96551)" />
      </g>
    </pattern>
  </defs>
  <sodipodi:namedview
     inkscape:window-height="803"
     inkscape:window-width="736"
     inkscape:pageshadow="2"
     inkscape:pageopacity="0.0"
     guidetolerance="10.0"
     gridtolerance="10.0"
     objecttolerance="10.0"
     borderopacity="1.0"
     bordercolor="#666666"
     pagecolor="#ffffff"
     id="base"
     showgrid="false"
     showguides="true"
     inkscape:guide-bbox="true"
     inkscape:zoom="1"
     inkscape:cx="148.2507"
     inkscape:cy="137.79079"
     inkscape:window-x="440"
     inkscape:window-y="260"
     inkscape:current-layer="svg2" />
  <path
     style="fill:#f09d9d;fill-opacity:1;fill-rule:evenodd;stroke:#bc2828;stroke-width:0.49712405px;stroke-linecap:butt;stroke-linejoin:miter;stroke-opacity:1"
     d="M 146.93427,152.00383 C 147.37468,154.30686 148.68967,155.21038 150.78699,154.86229 C 149.79955,157.96251 151.04698,158.82785 153.02404,158.96357 C 152.10362,164.0046 155.43728,165.29245 157.49816,164.68049 C 156.74184,167.08359 159.029,170.03049 161.97228,168.53321 C 161.09605,170.49834 163.82734,173.09427 166.07355,171.39167 C 165.69057,173.56216 168.55693,175.8031 170.67195,174.37441 C 170.31939,176.95175 174.27814,179.24031 176.38887,177.48144 C 176.22671,181.05661 180.07967,181.23482 180.98727,179.46993 C 185.10142,182.36693 183.6531,189.20735 186.95276,189.90954 L 190.55691,184.56546 L 177.25884,167.2904 L 152.77548,150.13962 L 147.80424,150.13962 L 146.93427,152.00383 z"
     id="path3199"
     sodipodi:nodetypes="ccccccccccccccc" />
  <path
     style="fill:#f09d9d;fill-opacity:1;fill-rule:evenodd;stroke:#bc2828;stroke-width:0.49712405px;stroke-linecap:butt;stroke-linejoin:miter;stroke-opacity:1"
     d="M 109.52569,184.68974 C 111.72402,183.02412 115.63783,183.85805 117.23111,186.30539 C 117.23111,186.30539 120.21386,195.3779 118.72248,195.62647 C 117.23111,195.87503 107.41291,195.25362 107.41291,194.7565 C 107.41291,194.25938 107.53719,188.91529 107.53719,188.91529 L 109.52569,184.68974 z"
     id="path3191"
     sodipodi:nodetypes="ccsscc" />
  <path
     style="fill:#f09d9d;fill-opacity:1;fill-rule:evenodd;stroke:#bc2828;stroke-width:0.49712405px;stroke-linecap:butt;stroke-linejoin:miter;stroke-opacity:1"
     d="M 87.776512,190.53094 C 85.034177,198.76252 69.246114,206.00328 65.778773,206.06607 L 59.937566,201.46767 L 60.931814,197.3664 L 84.172363,187.67248 L 87.776512,190.53094 z"
     id="path3177"
     sodipodi:nodetypes="cccccc" />
  <path
     style="fill:#f09d9d;fill-opacity:1;fill-rule:evenodd;stroke:#bc2828;stroke-width:0.49712405;stroke-linecap:butt;stroke-linejoin:miter;stroke-miterlimit:4;stroke-dasharray:none;stroke-opacity:1"
     d="M 60.807533,144.42269 C 60.158985,146.43977 56.876375,146.35779 56.146995,144.48483 C 56.574074,147.19266 52.42617,149.90448 50.305787,148.15112 C 51.552723,151.06914 48.083642,156.27676 43.781033,153.86805 C 45.392908,157.02603 42.19655,160.3147 38.747652,158.65287 C 39.764868,161.76436 36.729528,164.04119 34.957082,162.81628 C 35.612391,165.08724 34.196134,168.02077 31.415073,167.2904 C 31.608553,170.52747 28.501081,171.89824 26.878816,171.26739 C 26.878816,171.26739 34.087115,153.99233 34.70852,153.61948 C 35.329925,153.24664 57.203383,140.4457 57.203383,140.4457 C 58.692618,141.56577 61.413477,141.80608 60.807533,144.42269 z"
     id="path3175"
     sodipodi:nodetypes="ccccccccscc" />
  <path
     style="fill:#e06d6d;fill-opacity:1;fill-rule:evenodd;stroke:#bc2828;stroke-width:0.49712405px;stroke-linecap:butt;stroke-linejoin:miter;stroke-opacity:1"
     d="M 138.98029,160.7035 C 140.88855,154.32888 144.57075,151.50233 149.79274,151.75527 L 149.41989,141.0671 L 138.85601,135.8473 L 133.26336,148.52396 L 138.98029,160.7035 z"
     id="path3173"
     sodipodi:nodetypes="cccccc" />
  <path
     sodipodi:nodetypes="cccccc"
     id="path4190"
     d="M 137.48892,156.72651 C 139.39718,150.35189 143.07938,147.52534 148.30137,147.77828 L 147.92852,137.09011 L 137.36464,131.87031 L 131.77199,144.54697 L 137.48892,156.72651 z"
     style="fill:#db5353;fill-opacity:1;fill-rule:evenodd;stroke:none;stroke-width:1px;stroke-linecap:butt;stroke-linejoin:miter;stroke-opacity:1" />
  <path
     style="fill:#e06d6d;fill-opacity:1;fill-rule:evenodd;stroke:#bc2828;stroke-width:0.49712405px;stroke-linecap:butt;stroke-linejoin:miter;stroke-opacity:1"
     d="M 98.837522,165.42618 C 102.30611,160.90136 105.71096,156.23436 113.3784,161.07634 C 117.08202,152.83741 108.60129,146.18773 105.5487,138.83004 C 99.045619,147.04905 94.50961,155.56607 98.837522,165.42618 z"
     id="path3171"
     sodipodi:nodetypes="cccc" />
  <path
     style="fill:#e06d6d;fill-opacity:1;fill-rule:evenodd;stroke:#bc2828;stroke-width:0.49712405px;stroke-linecap:butt;stroke-linejoin:miter;stroke-opacity:1"
     d="M 53.226391,145.16838 C 60.229825,142.1745 69.168364,145.90974 73.857039,154.48945 C 76.353646,148.85917 72.661853,136.42734 68.637236,128.51472 C 63.900986,133.27145 54.108886,139.22585 53.226391,145.16838 z"
     id="path3169"
     sodipodi:nodetypes="cccc" />
  <path
     sodipodi:nodetypes="cccc"
     id="path4186"
     d="M 55.090606,142.18563 C 62.09404,139.19175 71.032579,142.92699 75.721254,151.50671 C 78.217861,145.87643 74.526068,133.4446 70.501452,125.53198 C 65.765202,130.28871 55.973101,136.24311 55.090606,142.18563 z"
     style="fill:#db5353;fill-opacity:1;fill-rule:evenodd;stroke:none;stroke-width:1px;stroke-linecap:butt;stroke-linejoin:miter;stroke-opacity:1" />
  <path
     sodipodi:nodetypes="cccc"
     id="path4188"
     d="M 98.216117,161.32491 C 101.6847,156.80008 105.08955,152.13308 112.757,156.97507 C 116.46062,148.73614 107.97988,142.08645 104.92729,134.72877 C 98.424213,142.94777 93.888205,151.4648 98.216117,161.32491 z"
     style="fill:#db5353;fill-opacity:1;fill-rule:evenodd;stroke:none;stroke-width:1px;stroke-linecap:butt;stroke-linejoin:miter;stroke-opacity:1" />
  <path
     style="fill:#bc2828;fill-opacity:1;fill-rule:evenodd;stroke:#982020;stroke-width:1.64050937;stroke-linecap:butt;stroke-linejoin:miter;stroke-miterlimit:4;stroke-dasharray:none;stroke-opacity:1"
     d="M 159.61094,108.87832 C 179.84692,80.756211 172.62212,42.121071 156.90186,23.211221 C 128.94296,-10.420439 85.104321,-1.8870093 64.774085,20.762141 C 51.572907,35.469051 40.346801,74.577951 57.079102,99.681521 C 41.711556,114.77033 32.652961,133.64454 23.77179,152.62524 C 21.056797,156.81097 15.880891,159.45865 7.8638209,160.33066 C 0.039983042,159.24235 -1.2362338,164.27196 3.8868284,168.53321 C 14.309581,175.34306 25.446552,172.16818 27.251659,170.5217 C 29.689505,168.89695 33.06811,163.99392 36.036736,160.72314 C 43.924205,152.03296 56.997127,141.89347 67.270145,133.61024 C 74.269304,144.42269 75.316496,157.84504 72.987072,166.04759 C 70.33576,173.83583 67.952349,187.57997 65.033087,189.41242 C 61.292925,193.23684 50.681663,193.45224 56.686523,202.34216 C 57.135824,203.00737 57.82111,203.62112 58.570474,204.32614 C 63.17603,207.17699 66.815774,205.13839 67.270145,205.32039 C 60.679623,204.75481 57.901892,200.11604 65.778773,198.36065 C 78.665919,195.62125 85.266632,192.89994 87.900793,189.66098 C 93.873639,181.9309 96.192325,175.00154 98.464679,166.17187 C 100.16082,159.50161 98.184152,149.66094 105.79726,144.17413 C 116.43089,156.72308 117.34684,187.64037 116.48543,189.16385 C 114.70005,194.26539 112.63267,194.00887 110.51994,192.89228 C 108.49515,190.75102 109.08464,187.71837 109.52569,184.9383 C 105.93969,185.60256 105.01066,188.68224 105.05157,192.64372 C 105.36585,199.88826 106.94457,206.06801 113.50268,208.05457 C 119.2386,209.4665 123.585,208.9135 127.29787,204.82326 C 146.96853,181.83525 138.8051,169.14144 136.61895,148.15112 C 136.17855,144.3351 137.75816,142.11961 139.60169,141.19138 C 141.71437,140.23695 143.87293,139.87917 146.31287,143.17988 C 149.69053,151.71972 153.02807,160.3148 158.98953,165.3019 C 164.28654,169.7102 169.76634,173.07289 175.39463,176.48719 C 179.14965,178.60459 183.41398,178.4301 186.57992,183.19837 C 187.32898,184.91971 188.51353,186.37976 187.69845,189.03957 C 194.12894,187.11605 196.53721,182.95801 197.01952,177.73 C 196.0294,173.09999 195.08089,168.4648 186.33136,164.80478 C 179.26931,162.82294 178.3812,153.35725 177.38312,148.15112 C 177.17513,138.35897 172.82713,125.28843 170.67195,122.05211 C 167.57944,116.90742 164.01511,112.38349 159.61094,108.87832 z"
     sodipodi:nodetypes="csscccccscccscccccccccccccccccccccccc"
     id="path3156" />
  <path
     sodipodi:type="arc"
     style="fill:#631414;fill-opacity:1;stroke:none;stroke-width:5.5;stroke-linecap:butt;stroke-linejoin:miter;stroke-miterlimit:4;stroke-dasharray:none;stroke-opacity:1"
     id="path3221"
     sodipodi:cx="1343.5"
     sodipodi:cy="934.5"
     sodipodi:rx="24.5"
     sodipodi:ry="24.5"
     d="M 1368,934.5 A 24.5,24.5 0 1 1 1319,934.5 A 24.5,24.5 0 1 1 1368,934.5 z"
     transform="matrix(0.248562,0,0,0.248562,-263.31732,-176.71946)" />
  <path
     d="M 1368,934.5 A 24.5,24.5 0 1 1 1319,934.5 A 24.5,24.5 0 1 1 1368,934.5 z"
     sodipodi:ry="24.5"
     sodipodi:rx="24.5"
     sodipodi:cy="934.5"
     sodipodi:cx="1343.5"
     id="path3223"
     style="fill:#631414;fill-opacity:1;stroke:none;stroke-width:5.5;stroke-linecap:butt;stroke-linejoin:miter;stroke-miterlimit:4;stroke-dasharray:none;stroke-opacity:1"
     sodipodi:type="arc"
     transform="matrix(0.248562,0,0,0.248562,-179.05477,-174.97952)" />
  <path
     style="fill:none;fill-rule:evenodd;stroke:#631414;stroke-width:1.69022179;stroke-linecap:butt;stroke-linejoin:miter;stroke-miterlimit:4;stroke-dasharray:none;stroke-opacity:1"
     d="M 96.351902,90.652411 C 103.37671,96.374661 121.60208,95.775271 127.67072,89.987611"
     id="path3225"
     sodipodi:nodetypes="cc" />
  <path
     style="fill:#982020;fill-opacity:1;fill-rule:evenodd;stroke:none;stroke-width:1px;stroke-linecap:butt;stroke-linejoin:miter;stroke-opacity:1"
     d="M 57.902489,99.759181 C 63.428669,106.58002 73.763281,111.98515 82.929553,116.08662 C 73.319399,112.16675 63.179908,107.94059 55.339168,101.60788 L 57.902489,99.759181 z"
     id="path3227"
     sodipodi:nodetypes="cccc" />
  <path
     style="fill:#982020;fill-opacity:1;fill-rule:evenodd;stroke:none;stroke-width:1px;stroke-linecap:butt;stroke-linejoin:miter;stroke-opacity:1"
     d="M 158.7099,108.9948 C 150.958,113.63112 141.05016,116.97344 134.38189,117.82655 C 141.76627,117.22135 151.88483,113.91091 160.63626,110.18327 L 158.7099,108.9948 z"
     id="path3229"
     sodipodi:nodetypes="cccc" />
  <path
     style="fill:#982020;fill-opacity:1;fill-rule:evenodd;stroke:none;stroke-width:1px;stroke-linecap:butt;stroke-linejoin:miter;stroke-opacity:1"
     d="M 133.60151,194.54726 C 129.9893,201.26669 111.83543,206.33159 108.5906,185.93439 C 101.85541,187.97493 105.93501,194.5052 105.07543,196.91934 C 106.95874,205.09111 111.43067,209.53779 122.91503,208.08012 C 128.40109,204.3837 130.04697,203.30529 133.60151,194.54726 z"
     id="path4174"
     sodipodi:nodetypes="ccccc" />
  <path
     style="fill:#982020;fill-opacity:1;fill-rule:evenodd;stroke:none;stroke-width:1px;stroke-linecap:butt;stroke-linejoin:miter;stroke-opacity:1"
     d="M 177.81811,153.80591 C 179.35636,159.47769 185.34968,164.49109 189.74908,167.04183 C 181.74976,164.45301 178.81002,163.68943 177.81811,153.80591 z"
     id="path4176"
     sodipodi:nodetypes="ccc" />
  <path
     style="fill:#982020;fill-opacity:1;fill-rule:evenodd;stroke:none;stroke-width:1px;stroke-linecap:butt;stroke-linejoin:miter;stroke-opacity:1"
     d="M 159.61094,165.67474 C 169.74223,171.66017 202.32175,180.16447 187.82273,189.16385 C 188.64517,186.14054 186.40975,183.55406 185.08854,180.83703 L 176.38887,176.98431 L 167.56492,171.51595 L 159.61094,165.67474 z"
     id="path4178"
     sodipodi:nodetypes="cccccc" />
  <path
     style="fill:#982020;fill-opacity:1;fill-rule:evenodd;stroke:none;stroke-width:1px;stroke-linecap:butt;stroke-linejoin:miter;stroke-opacity:1"
     d="M 102.81451,146.90831 C 92.352987,159.03018 96.252477,184.68109 79.698247,193.88653 C 84.105649,193.44394 88.721147,190.8505 94.114844,180.21562 L 98.58896,166.04759 L 100.08033,153.12236 L 102.81451,146.90831 z"
     id="path4180"
     sodipodi:nodetypes="cccccc" />
  <path
     style="fill:#982020;fill-opacity:1;fill-rule:evenodd;stroke:none;stroke-width:1px;stroke-linecap:butt;stroke-linejoin:miter;stroke-opacity:1"
     d="M 0.77980305,164.05909 C 8.2915962,167.21145 17.026314,172.15227 30.358684,161.07634 C 38.83962,153.35049 47.743609,146.11818 58.197631,140.69426 L 36.324173,159.70925 L 27.748783,170.39742 L 20.416203,172.5102 L 9.6037551,171.26739 L 1.8983322,166.91755 L 0.77980305,164.05909 z"
     id="path4184"
     sodipodi:nodetypes="ccccccccc" />
  <path
     style="fill:none;fill-rule:evenodd;stroke:#982020;stroke-width:0.49712405px;stroke-linecap:butt;stroke-linejoin:miter;stroke-opacity:1"
     d="M 4.6325144,161.07634 C 20.547295,163.5811 27.625794,156.61834 34.459958,149.39393 C 40.721533,141.2742 44.168591,133.15453 48.627993,125.03485"
     id="path4192"
     sodipodi:nodetypes="ccc" />
  <path
     style="fill:none;fill-rule:evenodd;stroke:#982020;stroke-width:0.49712405px;stroke-linecap:butt;stroke-linejoin:miter;stroke-opacity:1"
     d="M 67.767269,187.42392 C 83.955169,174.21394 86.681945,158.76039 87.155107,142.93132"
     id="path4194"
     sodipodi:nodetypes="cc" />
  <path
     style="fill:none;fill-rule:evenodd;stroke:#982020;stroke-width:0.49712405px;stroke-linecap:butt;stroke-linejoin:miter;stroke-opacity:1"
     d="M 118.22536,200.84627 C 125.80784,196.00866 126.51779,190.40741 128.4164,184.9383 C 131.12538,168.87468 124.77084,156.43649 122.94804,142.18563"
     id="path4196"
     sodipodi:nodetypes="ccc" />
  <path
     style="fill:none;fill-rule:evenodd;stroke:#982020;stroke-width:0.49712405px;stroke-linecap:butt;stroke-linejoin:miter;stroke-opacity:1"
     d="M 161.22659,136.71727 C 159.28532,145.15142 164.74787,157.40648 173.36745,162.81151 C 176.53036,164.79483 181.42509,166.06648 184.0943,168.03608 C 186.44604,170.03889 196.67009,178.04339 190.55691,187.42392"
     id="path4200"
     sodipodi:nodetypes="cscc" />
  <path
     style="fill:#982020;fill-opacity:1;fill-rule:evenodd;stroke:none;stroke-width:1px;stroke-linecap:butt;stroke-linejoin:miter;stroke-opacity:1"
     d="M 67.130354,204.60577 C 68.393844,204.86666 70.418631,204.57897 71.340348,204.40379 C 70.43946,204.92164 68.316591,205.62592 66.959443,206.00393 L 67.130354,204.60577 z"
     id="path4202"
     sodipodi:nodetypes="cccc" />
</svg>
